<svg width="20" height="20" fill="none" xmlns="http://www.w3.org/2000/svg"><path d="M10 0C4.486 0 0 4.486 0 10s4.486 10 10 10 10-4.486 10-10S15.514 0 10 0zm0 19.09C4.987 19.09.91 15.014.91 10S4.986.91 10 .91s9.09 4.077 9.09 9.09-4.077 9.09-9.09 9.09z" fill="#040F21"/><path d="M10 1.773c-4.537 0-8.227 3.69-8.227 8.227 0 4.537 3.69 8.227 8.227 8.227 4.537 0 8.227-3.69 8.227-8.227 0-4.537-3.69-8.227-8.227-8.227zm0 16.181c-4.386 0-7.955-3.568-7.955-7.954 0-4.386 3.569-7.955 7.955-7.955S17.954 5.614 17.954 10 14.386 17.954 10 17.954z" fill="#040F21"/><path d="M9.035 10.194h1.543l.387-.388H9.422l-.387.388zM10 14c-.03 0-.06 0-.09-.002a1.268 1.268 0 0 1-1.141-.839c-.156-.403-.157-1 .304-1.46l.426-.426H8.014a2.43 2.43 0 0 0-.263 2.278 2.362 2.362 0 0 0 2.25 1.54 2.821 2.821 0 0 0 2.817-2.818h-1.09A1.73 1.73 0 0 1 10 14zm0-8a1.268 1.268 0 0 1 1.231.84c.156.404.158 1-.303 1.461l-.427.426h1.485c.458-.66.564-1.498.263-2.278A2.362 2.362 0 0 0 10 4.909a2.821 2.821 0 0 0-2.818 2.818h1.09A1.73 1.73 0 0 1 10 6zm2.59 4.376H7.41v.715h5.182v-.715zm0-1.466H7.41v.714h5.182V8.91z" fill="#040F21"/></svg>