<svg width="20" height="20" viewBox="0 0 20 20" fill="none" xmlns="http://www.w3.org/2000/svg">
<path d="M10 0C4.486 0 0 4.486 0 10C0 15.514 4.486 20 10 20C15.514 20 20 15.514 20 10C20 4.486 15.514 0 10 0ZM10 19.0909C4.98718 19.0909 0.909091 15.0127 0.909091 10C0.909091 4.98727 4.98718 0.909091 10 0.909091C15.0128 0.909091 19.0909 4.98727 19.0909 10C19.0909 15.0127 15.0128 19.0909 10 19.0909Z" fill="#040F21"/>
<path d="M9.99998 1.77272C5.46343 1.77272 1.77271 5.46345 1.77271 9.99999C1.77271 14.5365 5.46343 18.2273 9.99998 18.2273C14.5365 18.2273 18.2273 14.5365 18.2273 9.99999C18.2273 5.46345 14.5365 1.77272 9.99998 1.77272ZM9.99998 17.9545C5.6138 17.9545 2.04543 14.3862 2.04543 9.99999C2.04543 5.61381 5.6138 2.04545 9.99998 2.04545C14.3862 2.04545 17.9545 5.61381 17.9545 9.99999C17.9545 14.3862 14.3862 17.9545 9.99998 17.9545Z" fill="#040F21"/>
<path d="M9.03467 10.1937H10.5775L10.9649 9.80637H9.42212L9.03467 10.1937Z" fill="#040F21"/>
<path d="M10.0001 14C9.97025 14 9.9407 13.9993 9.91079 13.9977C9.38752 13.9712 8.96061 13.6578 8.76879 13.1594C8.61334 12.7556 8.61161 12.1598 9.07252 11.6989L9.4987 11.2728H8.01434C7.55588 11.9334 7.45052 12.7712 7.7507 13.5513C8.09679 14.4504 8.90334 15.0391 9.85498 15.0873C9.90298 15.0897 9.95143 15.091 10.0001 15.091C11.5541 15.091 12.8182 13.8267 12.8182 12.2728H11.7273C11.7273 13.2252 10.9525 14 10.0001 14Z" fill="#040F21"/>
<path d="M10.0001 6C10.0299 6 10.0594 6.00072 10.0893 6.00227C10.6126 6.02882 11.0395 6.34218 11.2313 6.84063C11.3868 7.24436 11.3885 7.84018 10.9276 8.30109L10.5014 8.72727H11.9858C12.4442 8.06672 12.5497 7.22891 12.2494 6.44882C11.9033 5.54963 11.0968 4.961 10.1452 4.91282C10.0971 4.91036 10.0487 4.90909 10.0001 4.90909C8.44607 4.90909 7.18188 6.17336 7.18188 7.72727H8.27279C8.27279 6.77482 9.04761 6 10.0001 6Z" fill="#040F21"/>
<path d="M12.5908 10.3755H7.40894V11.0909H12.5908V10.3755Z" fill="#040F21"/>
<path d="M12.5908 8.90907H7.40894V9.62444H12.5908V8.90907Z" fill="#040F21"/>
</svg>
