<svg version="1.1" id="Layer_1" xmlns="http://www.w3.org/2000/svg" xmlns:xlink="http://www.w3.org/1999/xlink" x="0px" y="0px" width="30" height="47"
	viewBox="0 0 30 47" style="enable-background:new 0 0 30 47;" xml:space="preserve">
	<style type="text/css">
		.st0{fill-opacity:0;}
		.st1{fill:#0F1D33;}
	</style>
	<rect class="st0" width="30" height="46.1"/>
	<path class="st1" d="M15,0C6.3,0,0,7.2,0,15.1c0,4.1,1.2,6.5,2.9,10c0.3,0.6,0.6,1.2,0.9,1.9C8.3,36.3,15,46.1,15,46.1
		s6.7-9.9,11.1-19.1c0.3-0.7,0.6-1.3,0.9-1.9c1.7-3.5,2.9-6,2.9-10C30,7.2,23.7,0,15,0z M15,23.9c-4.8,0-8.7-3.9-8.7-8.7
		c0-4.9,3.9-8.7,8.7-8.7s8.7,3.9,8.7,8.7C23.7,20,19.8,23.9,15,23.9z"/>
</svg>
